<svg width="40" height="41" viewBox="0 0 40 41" fill="none" xmlns="http://www.w3.org/2000/svg">
<g clip-path="url(#clip0_9_9)">
<path d="M39.9809 20.8517C39.9809 19.1745 39.8448 17.9506 39.5503 16.6814H20.3984V24.2514H31.6402C31.4136 26.1326 30.1897 28.9658 27.4698 30.8695L27.4317 31.123L33.4872 35.8141L33.9067 35.8559C37.7597 32.2975 39.9809 27.0619 39.9809 20.8517Z" fill="#4285F4" style="fill:#4285F4;fill:color(display-p3 0.2588 0.5216 0.9569);fill-opacity:1;"/>
<path d="M20.3984 40.7969C25.9059 40.7969 30.5295 38.9836 33.9067 35.856L27.4698 30.8696C25.7473 32.0708 23.4355 32.9094 20.3984 32.9094C15.0042 32.9094 10.4259 29.3511 8.79391 24.4329L8.55469 24.4532L2.25812 29.3261L2.17578 29.555C5.53016 36.2185 12.4203 40.7969 20.3984 40.7969Z" fill="#34A853" style="fill:#34A853;fill:color(display-p3 0.2039 0.6588 0.3255);fill-opacity:1;"/>
<path d="M8.79391 24.4328C8.36328 23.1635 8.11406 21.8035 8.11406 20.3984C8.11406 18.9931 8.36328 17.6332 8.77125 16.364L8.75984 16.0937L2.38438 11.1425L2.17578 11.2417C0.793281 14.0068 0 17.112 0 20.3984C0 23.6848 0.793281 26.7898 2.17578 29.555L8.79391 24.4328Z" fill="#FBBC05" style="fill:#FBBC05;fill:color(display-p3 0.9843 0.7373 0.0196);fill-opacity:1;"/>
<path d="M20.3984 7.88734C24.2287 7.88734 26.8125 9.54187 28.2858 10.9245L34.0427 5.30359C30.507 2.01719 25.9059 0 20.3984 0C12.4203 0 5.53016 4.57828 2.17578 11.2417L8.77125 16.3641C10.4259 11.4458 15.0042 7.88734 20.3984 7.88734Z" fill="#EB4335" style="fill:#EB4335;fill:color(display-p3 0.9216 0.2627 0.2078);fill-opacity:1;"/>
</g>
<defs>
<clipPath id="clip0_9_9">
<rect width="40" height="40.9375" fill="white" style="fill:white;fill-opacity:1;"/>
</clipPath>
</defs>
</svg>
